<svg width="127" height="28" viewBox="0 0 127 28" fill="none" xmlns="http://www.w3.org/2000/svg">
<path d="M13.1358 6.26218C9.40909 6.26218 6.4031 9.2047 6.4031 12.8527C6.4031 16.5008 9.40909 19.4433 13.1358 19.4433C16.8625 19.4433 19.8685 16.5008 19.8685 12.8527C19.8685 9.2047 16.8625 6.26218 13.1358 6.26218ZM13.1358 17.1375C10.7275 17.1375 8.75867 15.2159 8.75867 12.8527C8.75867 10.4895 10.7216 8.56802 13.1358 8.56802C15.55 8.56802 17.5129 10.4895 17.5129 12.8527C17.5129 15.2159 15.5441 17.1375 13.1358 17.1375ZM21.7143 5.99259C21.7143 6.84724 21.0111 7.52982 20.1439 7.52982C19.2708 7.52982 18.5735 6.84151 18.5735 5.99259C18.5735 5.14368 19.2767 4.45537 20.1439 4.45537C21.0111 4.45537 21.7143 5.14368 21.7143 5.99259ZM26.1735 7.55276C26.0739 5.49357 25.5934 3.66955 24.0523 2.16674C22.5171 0.663932 20.6537 0.193587 18.5501 0.0903406C16.382 -0.0301135 9.88372 -0.0301135 7.71566 0.0903406C5.61791 0.187851 3.75455 0.658196 2.21347 2.161C0.672392 3.66381 0.197762 5.48783 0.0922891 7.54703C-0.030763 9.66931 -0.030763 16.0304 0.0922891 18.1527C0.191903 20.2119 0.672392 22.0359 2.21347 23.5387C3.75455 25.0416 5.61205 25.5119 7.71566 25.6151C9.88372 25.7356 16.382 25.7356 18.5501 25.6151C20.6537 25.5176 22.5171 25.0473 24.0523 23.5387C25.5875 22.0359 26.068 20.2119 26.1735 18.1527C26.2965 16.0304 26.2965 9.67505 26.1735 7.55276ZM23.3726 20.4299C22.9155 21.5541 22.0307 22.4202 20.8764 22.8734C19.1478 23.5445 15.046 23.3896 13.1358 23.3896C11.2256 23.3896 7.11798 23.5387 5.39525 22.8734C4.24676 22.426 3.36196 21.5599 2.89905 20.4299C2.21347 18.7378 2.37168 14.7227 2.37168 12.8527C2.37168 10.9828 2.21933 6.96196 2.89905 5.2756C3.3561 4.15137 4.2409 3.28524 5.39525 2.83211C7.12384 2.161 11.2256 2.31587 13.1358 2.31587C15.046 2.31587 19.1536 2.16674 20.8764 2.83211C22.0249 3.27951 22.9097 4.14563 23.3726 5.2756C24.0581 6.9677 23.8999 10.9828 23.8999 12.8527C23.8999 14.7227 24.0581 18.7435 23.3726 20.4299Z" fill="url(#paint0_linear_2_360)"/>
<path d="M73.5659 7.42069C73.5826 7.65857 73.5826 7.89651 73.5826 8.1344C73.5826 15.3903 68.1661 23.7508 58.2664 23.7508C55.2165 23.7508 52.3833 22.8501 50 21.2869C50.4333 21.3378 50.8499 21.3548 51.3 21.3548C53.8165 21.3548 56.1331 20.4882 57.9831 19.0098C55.6165 18.9588 53.6332 17.3785 52.9499 15.2034C53.2832 15.2544 53.6165 15.2884 53.9666 15.2884C54.4499 15.2884 54.9332 15.2204 55.3832 15.1015C52.9166 14.5916 51.0666 12.3826 51.0666 9.71473V9.64678C51.7832 10.0546 52.6166 10.3095 53.4998 10.3434C52.0499 9.35784 51.0999 7.67557 51.0999 5.77237C51.0999 4.75282 51.3665 3.81821 51.8332 3.00255C54.4832 6.33314 58.4664 8.50818 62.9329 8.74612C62.8495 8.33829 62.7995 7.91351 62.7995 7.48868C62.7995 4.46393 65.1995 2 68.1827 2C69.7326 2 71.1326 2.66272 72.1159 3.73327C73.3325 3.49538 74.4991 3.03655 75.5325 2.40783C75.1324 3.68232 74.2825 4.75287 73.1659 5.43253C74.2492 5.31364 75.2992 5.0077 76.2658 4.58293C75.5326 5.67042 74.6159 6.63897 73.5659 7.42069Z" fill="#009AFA"/>
<path d="M123.722 2H103.085C102.339 2 101.623 2.29017 101.095 2.80667C100.567 3.32318 100.271 4.02371 100.271 4.75416V24.9513C100.271 25.6818 100.567 26.3823 101.095 26.8988C101.623 27.4153 102.339 27.7055 103.085 27.7055H111.132V18.9662H107.438V14.8527H111.132V11.7176C111.132 8.15153 113.301 6.18173 116.624 6.18173C118.215 6.18173 119.879 6.45944 119.879 6.45944V9.95952H118.045C116.239 9.95952 115.676 11.0566 115.676 12.1818V14.8527H119.708L119.063 18.9662H115.676V27.7055H123.722C124.469 27.7055 125.185 27.4153 125.712 26.8988C126.24 26.3823 126.537 25.6818 126.537 24.9513V4.75416C126.537 4.02371 126.24 3.32318 125.712 2.80667C125.185 2.29017 124.469 2 123.722 2Z" fill="#1D00C0"/>
<defs>
<linearGradient id="paint0_linear_2_360" x1="23.5" y1="4" x2="2.5" y2="23" gradientUnits="userSpaceOnUse">
<stop stop-color="#5B049D"/>
<stop offset="0.515354" stop-color="#F02D92"/>
<stop offset="0.719675" stop-color="#FD1A05"/>
<stop offset="1" stop-color="#FF6B01"/>
</linearGradient>
</defs>
</svg>
