<svg width="45" height="45" viewBox="0 0 45 45" fill="none" xmlns="http://www.w3.org/2000/svg">
<path d="M1.91584 0.0114109C1.33385 0.207053 0.8319 0.587814 0.486647 1.09554C0.141394 1.60326 -0.02818 2.21004 0.00382391 2.8232V30.9411C0.00382391 31.6868 0.300065 32.402 0.827377 32.9293C1.35469 33.4566 2.06988 33.7528 2.81561 33.7528H16.8745V39.3764H11.251C8.158 39.3764 5.6274 41.907 5.6274 45H39.3688C39.3688 41.907 36.8382 39.3764 33.7453 39.3764H28.1217V33.7528H42.1806C42.9264 33.7528 43.6415 33.4566 44.1689 32.9293C44.6962 32.402 44.9924 31.6868 44.9924 30.9411V2.8232C44.9924 2.07747 44.6962 1.36228 44.1689 0.834964C43.6415 0.307652 42.9264 0.0114109 42.1806 0.0114109L2.81561 0.0114109C2.64725 -0.00380363 2.47785 -0.00380363 2.30949 0.0114109C2.19712 0.00465652 2.08444 0.00465652 1.97207 0.0114109L1.91584 0.0114109ZM5.6274 5.63498H39.3688V28.1293H5.6274V5.63498Z" fill="black"/>
</svg>
